<?xml version="1.0" standalone="no"?>
<!DOCTYPE svg PUBLIC "-//W3C//DTD SVG 20010904//EN"
 "http://www.w3.org/TR/2001/REC-SVG-20010904/DTD/svg10.dtd">
<svg version="1.0" xmlns="http://www.w3.org/2000/svg"
 width="886.000000pt" height="410.000000pt" viewBox="0 0 886.000000 410.000000"
 preserveAspectRatio="xMidYMid meet">

<g transform="translate(0.000000,410.000000) scale(0.100000,-0.100000)"
fill="#000000" stroke="none">
<path d="M325 3886 c-60 -28 -87 -56 -114 -116 -20 -45 -21 -57 -21 -1446 l0
-1402 27 -52 c17 -31 45 -65 71 -84 l44 -31 3817 0 3818 0 42 29 c23 16 54 50
69 75 l27 46 3 1409 2 1409 -24 52 c-26 56 -73 99 -133 121 -32 11 -684 13
-3808 13 l-3770 1 -50 -24z m3106 -466 c113 -14 178 -27 239 -50 47 -17 86
-33 88 -35 2 -2 13 -48 25 -102 22 -98 22 -101 15 -883 -6 -701 -13 -903 -35
-1011 -3 -16 -24 -41 -54 -64 -48 -36 -50 -37 -205 -52 -143 -15 -180 -15
-443 0 l-286 17 -38 42 c-20 24 -53 70 -71 103 l-33 61 8 199 c4 110 9 396 9
635 1 239 5 548 9 685 l7 250 44 93 c34 72 47 92 64 93 12 0 100 9 196 19 230
23 276 23 461 0z m-1861 -67 c16 -49 34 -189 66 -498 38 -367 154 -1628 150
-1631 -8 -6 -318 14 -325 21 -6 6 -16 148 -23 332 -8 177 -16 325 -20 328 -7
7 -285 -8 -292 -16 -4 -4 9 -292 27 -592 l3 -59 -242 4 c-133 2 -246 6 -250
10 -4 4 1 294 10 645 l16 638 47 418 c26 230 50 421 53 426 9 16 320 38 542
40 l217 1 21 -67z m853 -5 c26 -125 31 -1040 8 -1636 -10 -265 -20 -485 -24
-488 -3 -3 -110 -2 -237 2 l-233 7 6 88 c17 233 18 592 3 1024 -13 399 -14
498 -2 748 8 159 16 290 18 292 4 5 328 31 404 34 l42 1 15 -72z m4406 56 l43
-6 -6 -191 c-3 -106 -9 -533 -12 -951 l-7 -758 21 11 c12 6 24 16 28 22 4 6
78 428 165 936 87 509 160 927 162 929 7 7 401 -28 410 -36 11 -9 -309 -1975
-335 -2064 l-21 -68 -96 6 c-53 3 -186 8 -296 11 -110 3 -214 8 -231 11 l-32
4 -36 148 c-26 107 -71 392 -166 1052 -72 498 -133 915 -135 927 -5 20 -1 22
47 25 76 4 445 -2 497 -8z m-602 -6 c10 -17 17 -392 8 -475 l-7 -65 -236 8
c-131 4 -256 8 -280 8 l-43 1 -2 -159 -2 -159 248 7 248 7 -7 -103 c-11 -158
6 -145 -191 -153 -92 -4 -199 -10 -238 -14 l-70 -6 -3 -316 -2 -316 106 -6
c59 -4 183 -7 276 -7 l168 0 0 -215 0 -216 -47 5 c-110 12 -365 15 -608 7
-143 -4 -263 -5 -267 -2 -4 3 -15 108 -24 233 -17 217 -17 247 -1 640 17 386
17 435 1 758 -9 201 -13 388 -9 448 l7 102 483 0 c376 0 486 -3 492 -12z
m-1446 -41 c59 -21 113 -43 122 -50 8 -7 51 -66 95 -133 l79 -121 7 -371 c9
-443 0 -846 -20 -916 -7 -27 -16 -78 -20 -115 -11 -128 -23 -160 -106 -281
l-79 -115 -97 -6 c-53 -4 -252 -7 -441 -8 l-344 -1 7 968 c3 532 9 1018 12
1080 l6 113 337 -3 336 -4 106 -37z"/>
<path d="M3098 2823 l-107 -4 -14 -47 c-12 -38 -17 -153 -24 -572 -4 -289 -8
-570 -8 -625 l0 -100 127 -3 c124 -3 129 -2 187 27 l59 30 6 93 c8 116 56
1090 56 1135 0 28 -6 35 -40 53 -26 13 -55 19 -87 18 -26 -1 -96 -4 -155 -5z"/>
<path d="M1116 2903 c-3 -59 -9 -221 -12 -358 -6 -218 -4 -255 10 -289 l16
-39 98 6 c53 4 117 7 141 7 l44 0 -7 183 c-3 100 -9 259 -12 353 l-7 170 -118
32 c-65 18 -124 35 -132 38 -12 4 -16 -14 -21 -103z"/>
<path d="M4535 2996 c-2 -6 -8 -285 -14 -621 -6 -335 -14 -683 -17 -771 l-6
-161 93 -5 c91 -5 95 -5 120 21 l27 26 21 455 c29 619 28 760 -7 915 l-28 120
-93 16 c-66 12 -94 13 -96 5z"/>
</g>
</svg>
